<svg width="87" height="87" xmlns="http://www.w3.org/2000/svg" xmlns:xlink="http://www.w3.org/1999/xlink" xml:space="preserve" overflow="hidden"><defs><clipPath id="clip0"><rect x="212" y="60" width="87" height="87"/></clipPath></defs><g clip-path="url(#clip0)" transform="translate(-212 -60)"><path d="M50.529 114.979 53.2201 114.979 53.2201 100.863 50.529 100.863ZM54.1894 116.917 49.5597 116.917C49.0236 116.917 48.5905 116.482 48.5905 115.948L48.5905 99.8934C48.5905 99.3573 49.0236 98.9241 49.5597 98.9241L54.1894 98.9241C54.7255 98.9241 55.1586 99.3573 55.1586 99.8934L55.1586 115.948C55.1586 116.482 54.7255 116.917 54.1894 116.917" fill="#FFFFFF" transform="matrix(1.00901 0 0 1 172.138 21.0956)"/><path d="M58.2147 114.979 60.9074 114.979 60.9074 105.114 58.2147 105.114ZM61.8766 116.917 57.2455 116.917C56.7094 116.917 56.2762 116.482 56.2762 115.948L56.2762 104.144C56.2762 103.608 56.7094 103.175 57.2455 103.175L61.8766 103.175C62.4112 103.175 62.8459 103.608 62.8459 104.144L62.8459 115.948C62.8459 116.482 62.4112 116.917 61.8766 116.917" fill="#FFFFFF" transform="matrix(1.00901 0 0 1 172.138 21.0956)"/><path d="M65.9005 114.979 68.5931 114.979 68.5931 109.136 65.9005 109.136ZM69.5624 116.917 64.9312 116.917C64.3966 116.917 63.962 116.482 63.962 115.948L63.962 108.167C63.962 107.632 64.3966 107.197 64.9312 107.197L69.5624 107.197C70.0969 107.197 70.5316 107.632 70.5316 108.167L70.5316 115.948C70.5316 116.482 70.0969 116.917 69.5624 116.917" fill="#FFFFFF" transform="matrix(1.00901 0 0 1 172.138 21.0956)"/><path d="M59.0689 69.3367 59.0689 62.6808 65.6218 62.6808C65.2356 66.1397 62.5112 68.8945 59.0689 69.3367ZM50.579 62.6808 57.1304 62.6808 57.1304 69.3367C53.6896 68.8945 50.9667 66.1397 50.579 62.6808ZM57.1304 54.3332 57.1304 60.7423 50.6168 60.7423C51.103 57.4015 53.7729 54.7648 57.1304 54.3332ZM65.5839 60.7423 59.0689 60.7423 59.0689 54.3332C62.4279 54.7648 65.0978 57.4015 65.5839 60.7423ZM58.1057 52.3251C58.1042 52.3251 58.1011 52.3251 58.0996 52.3251 58.0981 52.3251 58.0966 52.3251 58.0951 52.3251 52.8536 52.3281 48.5905 56.5928 48.5905 61.8342 48.5905 67.0787 52.8567 71.3448 58.0996 71.3448 63.3441 71.3448 67.6103 67.0787 67.6103 61.8342 67.6103 56.5928 63.3471 52.3281 58.1057 52.3251" fill="#FFFFFF" transform="matrix(1.00901 0 0 1 172.138 21.0956)"/><path d="M49.5582 94.5777C49.381 94.5777 49.2023 94.5293 49.0418 94.4278 48.589 94.1416 48.4542 93.5434 48.7404 93.0906L52.9082 86.4997C53.0853 86.2181 53.3958 86.0484 53.7275 86.0484L57.5862 86.0484 60.6151 79.9938C60.7787 79.6651 61.1149 79.4576 61.4813 79.4576L66.2306 79.4576C66.7667 79.4576 67.1998 79.8908 67.1998 80.4269 67.1998 80.9615 66.7667 81.3961 66.2306 81.3961L62.0811 81.3961 59.0522 87.4508C58.8886 87.7794 58.5524 87.9869 58.1859 87.9869L54.2621 87.9869 50.3791 94.1264C50.1943 94.4172 49.8793 94.5777 49.5582 94.5777" fill="#FFFFFF" transform="matrix(1.00901 0 0 1 172.138 21.0956)"/><path d="M63.4516 84.8339C63.1745 84.8339 62.9004 84.7157 62.708 84.4886 62.3643 84.0782 62.4173 83.4663 62.8277 83.1226L66.1821 80.3072 62.7474 77.5934C62.3264 77.2602 62.2552 76.6514 62.5869 76.2319 62.9185 75.8124 63.5289 75.7397 63.9484 76.0729L68.3175 79.5243C68.5462 79.7045 68.681 79.9786 68.6855 80.2709 68.69 80.5617 68.5628 80.8403 68.3387 81.0266L64.0741 84.6067C63.8923 84.7597 63.6712 84.8339 63.4516 84.8339" fill="#FFFFFF" transform="matrix(1.00901 0 0 1 172.138 21.0956)"/><path d="M96.3284 57.1334 76.1683 57.1334C75.6322 57.1334 75.1991 56.7003 75.1991 56.1642 75.1991 55.6296 75.6322 55.1949 76.1683 55.1949L96.3284 55.1949C96.863 55.1949 97.2976 55.6296 97.2976 56.1642 97.2976 56.7003 96.863 57.1334 96.3284 57.1334" fill="#BA45FF" transform="matrix(1.00901 0 0 1 172.138 21.0956)"/><path d="M96.3284 62.8034 76.1683 62.8034C75.6322 62.8034 75.1991 62.3703 75.1991 61.8342 75.1991 61.2996 75.6322 60.865 76.1683 60.865L96.3284 60.865C96.863 60.865 97.2976 61.2996 97.2976 61.8342 97.2976 62.3703 96.863 62.8034 96.3284 62.8034" fill="#BA45FF" transform="matrix(1.00901 0 0 1 172.138 21.0956)"/><path d="M96.3284 68.4735 76.1683 68.4735C75.6322 68.4735 75.1991 68.0404 75.1991 67.5042 75.1991 66.9697 75.6322 66.535 76.1683 66.535L96.3284 66.535C96.863 66.535 97.2976 66.9697 97.2976 67.5042 97.2976 68.0404 96.863 68.4735 96.3284 68.4735" fill="#BA45FF" transform="matrix(1.00901 0 0 1 172.138 21.0956)"/><path d="M96.3284 80.5193 76.1683 80.5193C75.6322 80.5193 75.1991 80.0861 75.1991 79.55 75.1991 79.0154 75.6322 78.5808 76.1683 78.5808L96.3284 78.5808C96.863 78.5808 97.2976 79.0154 97.2976 79.55 97.2976 80.0861 96.863 80.5193 96.3284 80.5193" fill="#BA45FF" transform="matrix(1.00901 0 0 1 172.138 21.0956)"/><path d="M96.3284 86.1893 76.1683 86.1893C75.6322 86.1893 75.1991 85.7562 75.1991 85.2201 75.1991 84.6855 75.6322 84.2508 76.1683 84.2508L96.3284 84.2508C96.863 84.2508 97.2976 84.6855 97.2976 85.2201 97.2976 85.7562 96.863 86.1893 96.3284 86.1893" fill="#BA45FF" transform="matrix(1.00901 0 0 1 172.138 21.0956)"/><path d="M96.3284 91.8593 76.1683 91.8593C75.6322 91.8593 75.1991 91.4262 75.1991 90.8901 75.1991 90.3555 75.6322 89.9208 76.1683 89.9208L96.3284 89.9208C96.863 89.9208 97.2976 90.3555 97.2976 90.8901 97.2976 91.4262 96.863 91.8593 96.3284 91.8593" fill="#BA45FF" transform="matrix(1.00901 0 0 1 172.138 21.0956)"/><path d="M96.3284 105.577 76.1683 105.577C75.6322 105.577 75.1991 105.142 75.1991 104.608 75.1991 104.072 75.6322 103.639 76.1683 103.639L96.3284 103.639C96.863 103.639 97.2976 104.072 97.2976 104.608 97.2976 105.142 96.863 105.577 96.3284 105.577" fill="#BA45FF" transform="matrix(1.00901 0 0 1 172.138 21.0956)"/><path d="M96.3284 111.247 76.1683 111.247C75.6322 111.247 75.1991 110.812 75.1991 110.278 75.1991 109.742 75.6322 109.309 76.1683 109.309L96.3284 109.309C96.863 109.309 97.2976 109.742 97.2976 110.278 97.2976 110.812 96.863 111.247 96.3284 111.247" fill="#BA45FF" transform="matrix(1.00901 0 0 1 172.138 21.0956)"/><path d="M96.3284 116.917 76.1683 116.917C75.6322 116.917 75.1991 116.482 75.1991 115.948 75.1991 115.412 75.6322 114.979 76.1683 114.979L96.3284 114.979C96.863 114.979 97.2976 115.412 97.2976 115.948 97.2976 116.482 96.863 116.917 96.3284 116.917" fill="#BA45FF" transform="matrix(1.00901 0 0 1 172.138 21.0956)"/><path d="M104.013 125.83 42.6721 125.83C40.926 125.83 39.5054 124.407 39.5054 122.661L39.5054 42.186C39.5054 40.4398 40.926 39.0193 42.6721 39.0193L92.715 39.0193C94.1794 39.0193 96.1194 39.8477 97.1326 40.9048L105.391 49.5219C106.395 50.5684 107.181 52.5265 107.181 53.9773L107.181 76.1214C107.181 76.6559 106.746 77.0906 106.212 77.0906 105.675 77.0906 105.242 76.6559 105.242 76.1214L105.242 53.9773C105.242 53.0127 104.658 51.5588 103.991 50.8622L95.7332 42.2466C95.076 41.559 93.6645 40.9578 92.715 40.9578L42.6721 40.9578C41.9952 40.9578 41.4439 41.509 41.4439 42.186L41.4439 122.661C41.4439 123.34 41.9952 123.891 42.6721 123.891L104.013 123.891C104.691 123.891 105.242 123.34 105.242 122.661L105.242 93.1799C105.242 92.6438 105.675 92.2107 106.212 92.2107 106.746 92.2107 107.181 92.6438 107.181 93.1799L107.181 122.661C107.181 124.407 105.759 125.83 104.013 125.83" fill="#BA45FF" transform="matrix(1.00901 0 0 1 172.138 21.0956)"/><path d="M96.3723 42.9871 96.3723 49.8596C96.3723 50.5366 96.9236 51.0878 97.6005 51.0878L103.973 51.0878ZM104.013 53.0263 97.6005 53.0263C95.8544 53.0263 94.4339 51.6057 94.4339 49.8596L94.4339 42.7357C94.4339 41.1971 95.291 40.6519 96.0255 40.6519 96.5647 40.6519 97.0993 40.929 97.6142 41.4772L105.413 49.7915C106.333 50.7698 106.184 51.577 106.013 51.9707 105.844 52.3645 105.356 53.0263 104.013 53.0263" fill="#BA45FF" transform="matrix(1.00901 0 0 1 172.138 21.0956)"/><path d="M103.445 96.2618 98.9832 94.2021 118.157 52.684 122.619 54.7436ZM99.1558 99.6692 98.8727 96.3269 101.873 97.7126ZM120.847 49.9278C121.204 49.9278 121.598 50.0262 122.016 50.2185 122.679 50.526 123.094 50.9349 123.284 51.471 123.458 51.9662 123.422 52.5008 123.331 52.9384L121.544 52.1116 119.055 50.9636C119.431 50.4699 120.028 49.9278 120.847 49.9278ZM125.118 50.844C124.753 49.7945 123.983 48.9918 122.828 48.4588 122.154 48.1468 121.488 47.9893 120.847 47.9893 118.133 47.9893 116.931 50.688 116.797 51.006L96.8176 94.2688C96.71 94.502 96.6994 94.7685 96.7873 95.0093 96.7964 95.0351 96.8115 95.0563 96.8206 95.079L97.3673 101.535C97.3976 101.883 97.6111 102.189 97.9292 102.335 98.0579 102.394 98.1957 102.424 98.3335 102.424 98.5334 102.424 98.7318 102.362 98.8999 102.241L104.113 98.4895C104.403 98.4289 104.664 98.2442 104.799 97.9534L124.777 54.6922C124.865 54.5135 125.748 52.6537 125.118 50.844" fill="#FFFFFF" transform="matrix(1.00901 0 0 1 172.138 21.0956)"/></g></svg>