<svg width="108" height="87" xmlns="http://www.w3.org/2000/svg" xmlns:xlink="http://www.w3.org/1999/xlink" xml:space="preserve" overflow="hidden"><defs><clipPath id="clip0"><rect x="342" y="257" width="108" height="87"/></clipPath></defs><g clip-path="url(#clip0)" transform="translate(-342 -257)"><path d="M15.6083 31.6711C14.3368 31.6711 13.3037 32.7042 13.3037 33.9757 13.3037 35.2473 14.3368 36.2804 15.6083 36.2804 16.8798 36.2804 17.9129 35.2473 17.9129 33.9757 17.9129 32.7042 16.8774 31.6711 15.6083 31.6711ZM15.6083 35.5378C14.7491 35.5378 14.0487 34.8375 14.0487 33.9782 14.0487 33.119 14.7491 32.4186 15.6083 32.4186 16.4676 32.4186 17.1679 33.119 17.1679 33.9782 17.1679 34.8375 16.4676 35.5378 15.6083 35.5378ZM60.2106 22.033C60.2106 17.3691 56.416 13.5744 51.7521 13.5744 47.0882 13.5744 43.2936 17.3691 43.2936 22.033 43.2936 26.6968 47.0882 30.4915 51.7521 30.4915 56.416 30.4915 60.2106 26.6968 60.2106 22.033ZM51.7521 29.7465C47.498 29.7465 44.0386 26.2871 44.0386 22.033 44.0386 17.7788 47.498 14.3194 51.7521 14.3194 56.0062 14.3194 59.4656 17.7788 59.4656 22.033 59.4656 26.2871 56.0062 29.7465 51.7521 29.7465ZM24.566 46.2563C23.2945 46.2563 22.2614 47.2894 22.2614 48.5609 22.2614 49.8324 23.2945 50.8655 24.566 50.8655 25.8376 50.8655 26.8707 49.8324 26.8707 48.5609 26.8707 47.2894 25.8376 46.2563 24.566 46.2563ZM24.566 50.1205C23.7068 50.1205 23.0065 49.4202 23.0065 48.5609 23.0065 47.7016 23.7068 47.0013 24.566 47.0013 25.4253 47.0013 26.1256 47.7016 26.1256 48.5609 26.1256 49.4202 25.4253 50.1205 24.566 50.1205ZM82.2833 11.5678 95.4157 11.5678C96.7865 11.5678 97.9041 10.4527 97.9041 9.0794L97.9041 8.40391C97.9041 7.03306 96.789 5.91552 95.4157 5.91552L82.2833 5.91552C80.9125 5.91552 79.7949 7.03058 79.7949 8.40391L79.7949 9.0794C79.7949 10.4503 80.9125 11.5678 82.2833 11.5678ZM80.54 8.40391C80.54 7.44283 81.3223 6.66055 82.2833 6.66055L95.4157 6.66055C96.3768 6.66055 97.1591 7.44283 97.1591 8.40391L97.1591 9.0794C97.1591 10.0405 96.3768 10.8228 95.4157 10.8228L82.2833 10.8228C81.3223 10.8228 80.54 10.0405 80.54 9.0794L80.54 8.40391ZM105.402 12.9088 82.3578 12.9088C80.987 12.9088 79.8694 14.0239 79.8694 15.3972L79.8694 16.0727C79.8694 17.4436 80.9845 18.5611 82.3578 18.5611L105.402 18.5611C106.772 18.5611 107.89 17.4461 107.89 16.0727L107.89 15.3972C107.89 14.0239 106.775 12.9088 105.402 12.9088ZM107.145 16.0702C107.145 17.0313 106.363 17.8136 105.402 17.8136L82.3578 17.8136C81.3968 17.8136 80.6145 17.0313 80.6145 16.0702L80.6145 15.3948C80.6145 14.4337 81.3968 13.6514 82.3578 13.6514L105.402 13.6514C106.363 13.6514 107.145 14.4337 107.145 15.3948L107.145 16.0702ZM79.3554 56.1627 74.4456 56.1627C76.934 51.0195 78.3297 45.2505 78.3297 39.1636 78.3297 17.5702 60.762 0 39.1661 0 17.5702 0 0 17.5702 0 39.1661 0 48.3622 3.18623 56.8257 8.51318 63.5161 6.8319 65.9349 5.8435 68.8654 5.8435 72.0268 5.8435 80.2718 12.5512 86.9795 20.7962 86.9795 26.9005 86.9795 32.1579 83.3015 34.4799 78.0491 36.0171 78.2329 37.5792 78.3297 39.1661 78.3297 52.3307 78.3297 63.9979 71.8008 71.103 61.8125L79.3579 61.8125C80.7287 61.8125 81.8463 60.6974 81.8463 59.3241L81.8463 58.6486C81.8413 57.2802 80.7262 56.1627 79.3554 56.1627ZM20.7962 86.2345C12.961 86.2345 6.58853 79.8595 6.58853 72.0268 6.58853 69.1013 7.47759 66.3795 8.99993 64.1171 15.0918 71.468 23.8136 76.564 33.7075 77.9498 31.4576 82.8322 26.518 86.2345 20.7962 86.2345ZM9.44695 63.4888C12.0421 60.0467 16.1646 57.8166 20.7962 57.8166 28.6314 57.8166 35.0039 64.1916 35.0039 72.0243 35.0039 73.8645 34.6488 75.6228 34.008 77.237 24.1538 75.9109 15.4693 70.8323 9.44695 63.4888ZM39.1661 77.5847C37.681 77.5847 36.2183 77.4978 34.7754 77.3314 35.4037 75.6799 35.7514 73.8918 35.7514 72.0243 35.7514 63.7793 29.0437 57.0716 20.7987 57.0716 15.9908 57.0716 11.7069 59.3563 8.97013 62.8927 3.81951 56.3564 0.745028 48.1139 0.745028 39.1661 0.745028 17.98 17.98 0.745028 39.1661 0.745028 60.3522 0.745028 77.5872 17.98 77.5872 39.1661 77.5872 45.2654 76.1567 51.0369 73.6162 56.1651L56.262 56.1651C54.8912 56.1651 53.7736 57.2802 53.7736 58.6535L53.7736 59.329C53.7736 60.6999 54.8887 61.8174 56.262 61.8174L70.1816 61.8174C63.1833 71.3687 51.8887 77.5847 39.1661 77.5847ZM73.2337 56.9077C72.4788 58.3506 71.6369 59.7388 70.7106 61.0674L56.257 61.0674C55.296 61.0674 54.5137 60.2852 54.5137 59.3241L54.5137 58.6486C54.5137 57.6875 55.296 56.9052 56.257 56.9052L73.2337 56.9052ZM81.0963 59.3265C81.0963 60.2876 80.314 61.0699 79.3529 61.0699L71.617 61.0699C72.5185 59.7388 73.338 58.3506 74.0731 56.9102L79.3529 56.9102C80.314 56.9102 81.0963 57.6925 81.0963 58.6535L81.0963 59.3265Z" fill="#FFFFFF" transform="matrix(1.00111 0 0 1 342 257.015)"/><path d="M50.0261 29.5503C49.748 29.4857 49.4748 29.4087 49.2091 29.3144L59.0335 19.4899C59.1279 19.7556 59.2049 20.0288 59.2694 20.307L50.0261 29.5503ZM70.6932 16.85 55.4549 32.1604C54.5236 33.0916 53.2869 33.6032 51.9731 33.6032L45.0642 33.6032C46.1122 33.1512 47.0758 32.5006 47.9078 31.6711L49.4177 30.1612C49.1495 30.0842 48.8887 29.9948 48.6329 29.893L47.3813 31.1446C45.7944 32.7315 43.6859 33.6057 41.4434 33.6057L36.9857 33.6057 17.7714 33.6057 17.7714 34.3507 36.9807 34.3507 41.4384 34.3507 51.9706 34.3507C53.4855 34.3507 54.9085 33.7597 55.9814 32.6893L71.2197 17.379C72.151 16.4477 73.3852 15.9361 74.7014 15.9361L79.8694 15.9361 79.8694 15.1911 74.7014 15.1911C73.189 15.1886 71.766 15.7797 70.6932 16.85ZM73.9415 8.36914C71.5003 8.36914 69.2031 9.3203 67.4747 11.0463L59.6097 18.9113C59.7115 19.1671 59.8009 19.4278 59.8779 19.696L67.9987 11.5728C69.5856 9.98585 71.694 9.11169 73.9365 9.11169L79.867 9.11169 79.867 8.36666 73.9415 8.36666ZM38.4856 56.1552 33.1959 50.8655C31.47 49.1395 29.1728 48.1884 26.7291 48.1884L26.7291 48.9334C28.9716 48.9334 31.0826 49.8076 32.667 51.3945L37.9567 56.6842C39.6827 58.4102 41.9798 59.3613 44.4235 59.3613L54.1436 59.3613 54.1436 58.6163 44.4235 58.6163C42.181 58.6163 40.0726 57.7421 38.4856 56.1552Z" fill="#BA45FF" transform="matrix(1.00111 0 0 1 342 257.015)"/></g></svg>